<?xml version="1.0" encoding="UTF-8"?>
<svg id="Layer_2" data-name="Layer 2" xmlns="http://www.w3.org/2000/svg" viewBox="0 0 250 250">
  <defs>
    <style>
      .cls-1 {
        fill: #ffb000;
      }

      .cls-2 {
        fill: #260000;
      }
    </style>
  </defs>
  <g id="Layer_1-2" data-name="Layer 1">
    <g>
      <rect class="cls-2" width="250" height="250"/>
      <g>
        <path class="cls-1" d="M53.83,64.12c.49-.18.89-.12,1.2.18,1.6,1.29,3.31,2.53,5.13,3.7,1.82,1.17,3.65,2.28,5.5,3.33.43.25.49.65.18,1.2l-6.19,8.22c-.31.43-.68.52-1.11.28-2.09-1.11-4.08-2.34-5.96-3.7-1.88-1.35-3.71-2.74-5.5-4.16-1.23,1.17-1.85,2.37-1.85,3.6,0,.86.28,1.76.83,2.68.55.92,1.32,1.82,2.31,2.68l15.61,13.03c1.42,1.17,2.66,2.62,3.74,4.34,1.08,1.72,1.62,3.7,1.62,5.91,0,2.83-1.28,6.13-3.83,9.89-2.56,3.76-7.16,7.88-13.81,12.38-.43.25-.83.21-1.2-.09-2.28-1.66-4.57-3.28-6.88-4.85-2.31-1.57-4.64-3.13-6.98-4.67-.49-.31-.55-.71-.18-1.2l6.65-8.87c.31-.49.68-.55,1.11-.18,2.34,1.42,4.59,2.93,6.74,4.53,2.16,1.6,4.25,3.23,6.28,4.9.92-.8,1.66-1.69,2.22-2.68.55-.98.83-1.97.83-2.96,0-1.72-.8-3.29-2.4-4.71l-15.89-13.4c-3.63-3.08-5.45-6.5-5.45-10.26,0-3.26,1.45-6.56,4.34-9.89,2.89-3.33,7.21-6.4,12.93-9.24Z"/>
        <path class="cls-1" d="M90.6,118.07c-.25-.31-.37-.65-.37-1.02v-1.48l-6.65,7.67c-.31.43-.71.46-1.2.09l-7.85-5.64c-.37-.31-.55-.65-.55-1.02v-31.14l-2.59-2.22c-.43-.43-.49-.83-.19-1.2l5.17-7.39c.31-.49.68-.55,1.11-.19,1.05.8,2.03,1.59,2.96,2.36.92.77,1.88,1.59,2.86,2.45.31.25.46.59.46,1.02v26.15c0,2.34.57,4.11,1.71,5.31,1.14,1.2,2.73,1.99,4.76,2.36v-36.86c0-.49.25-.8.74-.92l7.95-1.66c.62-.12.92.12.92.74v36.96l2.77,2.49c.37.37.4.77.09,1.2l-6.01,6.65c-.37.43-.74.46-1.11.09-.8-.74-1.63-1.51-2.49-2.31-.86-.8-1.69-1.63-2.49-2.49Z"/>
        <path class="cls-1" d="M120.72,122.88c-.37.37-.77.43-1.2.19l-2.86-1.66v10.72c0,.55-.28.83-.83.83h-8.04c-.55,0-.83-.28-.83-.83v-16.63l-2.49-1.48c-.43-.25-.49-.65-.19-1.2l2.68-3.6v-23.65l-2.68-2.22c-.37-.37-.43-.77-.18-1.2l5.27-7.39c.31-.49.68-.55,1.11-.19,1.05.8,2.05,1.57,3,2.31.95.74,1.86,1.54,2.73,2.4.31.31.46.68.46,1.11v1.85l6.93-7.85c.43-.43.83-.43,1.2,0,2.77,2.9,4.79,6.1,6.05,9.61,1.26,3.51,1.89,7.15,1.89,10.9,0,4.93-1.05,9.84-3.14,14.74-2.09,4.9-5.05,9.32-8.87,13.26ZM116.65,110.04c.98.8,1.99,1.56,3,2.26,1.02.71,2.05,1.4,3.1,2.08.92-1.42,1.62-3.08,2.08-4.99.46-1.91.69-3.88.69-5.91,0-2.83-.37-5.59-1.11-8.27-.74-2.68-1.77-4.93-3.09-6.74-1.33-1.82-2.88-2.85-4.67-3.1v24.67Z"/>
        <path class="cls-1" d="M151.67,122.88c-.37.37-.77.43-1.2.19l-2.86-1.66v10.72c0,.55-.28.83-.83.83h-8.04c-.55,0-.83-.28-.83-.83v-16.63l-2.5-1.48c-.43-.25-.49-.65-.18-1.2l2.68-3.6v-23.65l-2.68-2.22c-.37-.37-.43-.77-.18-1.2l5.27-7.39c.31-.49.68-.55,1.11-.19,1.05.8,2.05,1.57,3,2.31.95.74,1.86,1.54,2.73,2.4.31.31.46.68.46,1.11v1.85l6.93-7.85c.43-.43.83-.43,1.2,0,2.77,2.9,4.79,6.1,6.05,9.61,1.26,3.51,1.89,7.15,1.89,10.9,0,4.93-1.05,9.84-3.14,14.74-2.09,4.9-5.05,9.32-8.87,13.26ZM147.6,110.04c.98.8,1.99,1.56,3,2.26,1.02.71,2.05,1.4,3.09,2.08.92-1.42,1.62-3.08,2.08-4.99.46-1.91.69-3.88.69-5.91,0-2.83-.37-5.59-1.11-8.27s-1.77-4.93-3.09-6.74c-1.33-1.82-2.88-2.85-4.67-3.1v24.67Z"/>
        <path class="cls-1" d="M188.44,114.47c.43.06.65.18.65.37,0,.12-.15.34-.46.65l-8.68,7.76c-.43.31-.83.34-1.2.09-3.2-2.59-5.77-5.62-7.71-9.1-1.94-3.48-3.23-7.13-3.88-10.95-.65-3.82-.62-7.59.09-11.32.71-3.73,2.11-7.14,4.2-10.26,2.09-3.11,4.86-5.65,8.31-7.62.49-.31.89-.21,1.2.28,1.66,2.4,3.28,4.87,4.85,7.39,1.57,2.53,3.12,5.14,4.67,7.85.25.37.21.77-.09,1.2l-13.58,13.86c1.42,2.28,3.09,4.27,5.04,5.96,1.94,1.69,4.14,2.97,6.61,3.83ZM181.69,95.07c-.99-2.09-2.05-4.06-3.19-5.91-1.14-1.85-2.33-3.7-3.56-5.54-1.17,2.83-1.79,5.76-1.85,8.78-.06,3.02.49,5.76,1.66,8.22l6.93-5.54Z"/>
        <path class="cls-1" d="M209.31,90.17c-.43.49-.8.43-1.11-.18-1.17-2.09-2.43-4.03-3.79-5.82v36.86c0,.55-.28.83-.83.83h-8.13c-.55,0-.83-.28-.83-.83v-35.48l-2.59-2.22c-.43-.43-.49-.83-.18-1.2l5.17-7.39c.31-.49.68-.55,1.11-.19,1.05.8,2.05,1.59,3,2.36.95.77,1.89,1.59,2.82,2.45.31.25.46.59.46,1.02v1.76l4.99-7.58c.12-.25.31-.38.55-.42.25-.03.46.11.65.42.86,1.17,1.71,2.4,2.54,3.7s1.58,2.59,2.26,3.88c.25.37.21.77-.09,1.2l-6,6.84Z"/>
        <path class="cls-1" d="M73.18,195.9c.12-.19.28-.31.46-.37-2.09-2.83-3.77-6.16-5.04-9.98-1.26-3.82-1.89-8.01-1.89-12.57s.57-8.55,1.71-12.33c1.14-3.79,2.71-7.1,4.71-9.93,2-2.83,4.26-5.05,6.79-6.65,2.52-1.6,5.17-2.4,7.95-2.4,1.97,0,3.76.14,5.36.42,1.6.28,3.08.63,4.43,1.06,1.23.31,2.37.4,3.42.28,1.05-.12,2.16-.49,3.33-1.11.49-.31.83-.34,1.02-.09.25.31.28.68.09,1.11l-25.04,47.12c.18,2.16.74,3.93,1.66,5.31.92,1.39,2.05,2.4,3.37,3.05,1.32.65,2.6.97,3.83.97,2.71,0,4.86-1.32,6.47-3.97,1.6-2.65,2.77-6.07,3.51-10.25.12-.68.46-.89,1.02-.65l5.08,1.66c.55.25.74.68.55,1.29-.92,5.36-2.88,9.42-5.87,12.2-2.99,2.77-6.54,4.16-10.67,4.16-2.4,0-4.71-.49-6.93-1.48s-4.25-2.37-6.1-4.16l-4.25,6.01c-.31.55-.68.61-1.11.18l-1.76-1.48c-.37-.37-.4-.74-.09-1.11l3.97-6.28ZM80.48,154.88v26.79l12.2-23.93c1.05-2.09,1.57-4.06,1.57-5.91s-.51-3.17-1.52-4.16c-1.02-.98-2.42-1.48-4.2-1.48-1.91,0-3.73.69-5.45,2.08-1.73,1.39-2.59,3.59-2.59,6.61Z"/>
        <path class="cls-1" d="M119.56,198.02c0,.55-.28.83-.83.83h-8.31c-.55,0-.83-.28-.83-.83v-48.6c0-1.05-.17-1.91-.51-2.59-.34-.68-.76-1.23-1.25-1.66-.37-.31-.55-.65-.55-1.02,0-.31.25-.52.74-.65l10.62-1.66c.62-.12.92.12.92.74v55.43Z"/>
        <path class="cls-1" d="M142.66,195.07c-.25-.31-.37-.65-.37-1.02v-1.48l-6.65,7.67c-.31.43-.71.46-1.2.09l-7.85-5.64c-.37-.31-.55-.65-.55-1.02v-31.13l-2.59-2.22c-.43-.43-.49-.83-.19-1.2l5.17-7.39c.31-.49.68-.55,1.11-.18,1.05.8,2.03,1.59,2.96,2.36.92.77,1.88,1.59,2.86,2.45.31.25.46.59.46,1.02v26.15c0,2.34.57,4.11,1.71,5.31,1.14,1.2,2.72,1.99,4.76,2.36v-36.86c0-.49.24-.8.74-.92l7.95-1.66c.62-.12.92.12.92.74v36.96l2.77,2.5c.37.37.4.77.09,1.2l-6.01,6.65c-.37.43-.74.46-1.11.09-.8-.74-1.63-1.51-2.49-2.31-.86-.8-1.69-1.63-2.49-2.5Z"/>
        <path class="cls-1" d="M156.33,144.16c0-.31.25-.52.74-.65l10.44-1.66c.62-.12.92.12.92.74v16.17l6.93-7.67c.37-.43.77-.43,1.2,0,2.77,2.96,4.85,6.34,6.24,10.16,1.39,3.82,2.08,7.73,2.08,11.73,0,5.24-1.14,10.3-3.42,15.2-2.28,4.9-5.67,9.01-10.16,12.33-.31.25-.71.31-1.2.18-4.13-1.66-8.38-3.7-12.75-6.1-.43-.25-.49-.65-.18-1.2l1.57-2.22v-41.76c0-1.97-.62-3.39-1.85-4.25-.37-.31-.55-.65-.55-1.02ZM174.81,191.37c1.05-1.35,1.8-2.99,2.26-4.9.46-1.91.69-3.91.69-6.01,0-2.77-.39-5.46-1.16-8.08-.77-2.62-1.85-4.85-3.23-6.7s-3.03-2.96-4.94-3.33v26.33l6.38,2.68Z"/>
      </g>
    </g>
  </g>
</svg>